<?xml version="1.0" encoding="UTF-8"?>
<svg version="1.1" xmlns="http://www.w3.org/2000/svg" width="1280" height="755">
<path d="M0 0 C1.55460938 0.56074219 1.55460938 0.56074219 3.140625 1.1328125 C10.07357783 3.7631539 15.50091655 7.04499548 21 12 C21.81210937 12.71929688 22.62421875 13.43859375 23.4609375 14.1796875 C39.78465496 29.4988685 49.69467156 51.77824326 50.47950745 74.11898804 C50.58087777 78.99624346 50.61539565 83.87178867 50.625 88.75 C50.19354786 109.64758203 50.19354786 109.64758203 55.625 129.5625 C58 134.73121387 58 134.73121387 58 138 C55.14705066 137.66691454 53.45669875 137.43305787 51.33984375 135.42578125 C43.68501791 123.8902359 42.13622984 110.04409365 40.25 96.625 C40.02821842 95.09883097 39.80556643 93.57278817 39.58203125 92.046875 C39.04469251 88.36597708 38.51898833 84.6835357 38 81 C33.62581043 108.73810108 31.14885279 135.90851867 48.32958984 159.85302734 C58.77940748 173.62464132 71.65015339 182.39938439 87 190 C84.06552643 192.93447357 80.81740544 192.46158423 76.875 192.625 C75.74384766 192.68300781 75.74384766 192.68300781 74.58984375 192.7421875 C72.72696816 192.83651031 70.86351745 192.91934662 69 193 C69.2165625 193.52207031 69.433125 194.04414063 69.65625 194.58203125 C73.51939649 204.79433052 72.00204786 214.91371357 70.4375 225.5 C70.17731079 227.29775879 70.17731079 227.29775879 69.91186523 229.13183594 C68.32685175 239.64842394 66.2531562 250.04573478 64.10708618 260.45999146 C61.85309422 271.41673323 59.8454949 282.38406859 58.125 293.4375 C57.92205322 294.7275293 57.71910645 296.01755859 57.51000977 297.34667969 C55.70793566 309.19221998 54.44652127 319.77926676 56.6875 331.625 C56.87755615 332.66406494 57.0676123 333.70312988 57.26342773 334.77368164 C57.65177426 336.87049497 58.04722742 338.96600605 58.45019531 341.06005859 C58.94158532 343.68764227 59.36913555 346.31497761 59.7734375 348.95703125 C61.63881578 360.11464625 66.20502975 367.81745783 72.63671875 377.00341797 C95.62922793 410.67690294 94.19542338 449.7002395 87 488 C84.90765236 499.05452699 82.55384969 510.0432508 80 521 C79.59370361 522.74676025 79.59370361 522.74676025 79.17919922 524.52880859 C69.50974337 565.08209743 54.70362033 604.60098584 40.76489258 643.84204102 C40.04352567 645.87720288 39.32634604 647.91377194 38.61132812 649.95117188 C37.47775462 653.17858475 36.33524997 656.40260707 35.1875 659.625 C34.72621704 660.94056885 34.72621704 660.94056885 34.25561523 662.28271484 C32.23229401 667.883853 32.23229401 667.883853 30 669 C32.8702985 654.25695482 36.01625465 639.57907673 39.21109772 624.90342236 C48.82451158 580.72935252 57.9679989 536.48624437 65.5390625 491.91015625 C65.67391052 491.12010193 65.80875854 490.33004761 65.94769287 489.51605225 C72.08610105 452.94165854 67.14303618 416.38692939 51 383 C50.70399902 382.38737305 50.40799805 381.77474609 50.10302734 381.14355469 C45.83493251 372.45979178 40.74844047 364.50025903 35.30664062 356.50952148 C22.25738461 337.19737638 22.75548174 320.33190538 27 298 C28.12495444 292.93924604 29.49842352 287.96206239 31 283 C30.34 283.33 29.68 283.66 29 284 C14.5724404 285.11975089 2.12045125 281.96827927 -9.125 272.8125 C-15.15983074 267.27351707 -20.04996814 261.28572093 -21 253 C-20.55269531 253.38671875 -20.10539063 253.7734375 -19.64453125 254.171875 C-18.38369569 255.25796789 -17.11914906 256.33976265 -15.8515625 257.41796875 C-14.44918089 258.6162062 -13.06409593 259.83472525 -11.6875 261.0625 C-0.46819665 269.15083497 12.27229269 272.3839056 26 271 C32.82001968 269.54053415 37.05923558 266.86198959 40.8828125 261.0078125 C43.73560872 255.88075916 44.88307467 250.85036967 44 245 C42.44563812 240.46055679 39.95015724 236.87631472 36.9375 233.1875 C31.76876046 226.52702297 30.31144401 218.26267186 31 210 C31.53721731 207.59400113 32.21855466 205.34433602 33 203 C34.75944472 205.63916708 35.68645652 207.68626145 36.75 210.625 C40.06699781 219.03944298 45.4367719 225.72249389 51.16796875 232.640625 C52.99853909 234.99811857 54.51796304 237.41217076 56 240 C60.25615192 221.7444038 60.25615192 221.7444038 56.359375 204.01171875 C49.84588254 194.37249858 37.64482638 189.56112603 27.68359375 184.22265625 C15.28746755 177.35387706 2.77353888 167.02192286 -2 153.1875 C-4.49573674 142.0613446 -4.24919278 128.80623463 -1.42651367 117.78173828 C-0.92239887 115.98117152 -0.92239887 115.98117152 -1 114 C-2.95927063 112.2856382 -4.95880212 110.61594832 -7 109 C-6.505 107.515 -6.505 107.515 -6 106 C-4.948125 105.95875 -3.89625 105.9175 -2.8125 105.875 C0.92162648 105.01798737 2.63518735 104.30259612 4.93359375 101.23046875 C7.34926045 96.17792045 8.07585128 90.48478509 9 85 C8.06994141 84.814375 8.06994141 84.814375 7.12109375 84.625 C-6.75304178 81.39376029 -17.9697901 73.68719146 -29 65 C-30.485 64.01 -30.485 64.01 -32 63 C-30.46691095 65.06936723 -28.92410147 67.13016897 -27.375 69.1875 C-26.94832031 69.76564453 -26.52164063 70.34378906 -26.08203125 70.93945312 C-23.07641007 74.90956468 -19.88136758 77.88693832 -16 81 C-16 81.33 -16 81.66 -16 82 C-27.09272536 81.59662817 -33.87972594 74.7514442 -41.3515625 67.0703125 C-45.69358876 62.23295039 -48.9114976 56.7023797 -52 51 C-52.34015137 50.38979004 -52.68030273 49.77958008 -53.03076172 49.15087891 C-55.70253601 44.15107463 -57.15205825 39.2967227 -58.25 33.75 C-58.50148804 32.50645752 -58.50148804 32.50645752 -58.75805664 31.23779297 C-61.74868155 15.59896845 -61.74868155 15.59896845 -58.72265625 9.37109375 C-46.42223609 -7.55941654 -17.18658352 -6.95647428 0 0 Z M45.64794922 277.10449219 C42.17959254 281.09387311 42.42546794 286.55739569 42.0625 291.625 C41.95607178 292.82817871 41.84964355 294.03135742 41.73999023 295.27099609 C41.44505057 298.84597909 41.20800873 302.41898692 41 306 C40.94199219 306.98226562 40.88398437 307.96453125 40.82421875 308.9765625 C40.04023559 322.1156661 40.04023559 322.1156661 45 334 C45.66 334.66 46.32 335.32 47 336 C47.0093457 335.44054687 47.01869141 334.88109375 47.02832031 334.3046875 C47.32939866 319.61678717 48.65560916 305.23223435 50.62792969 290.69140625 C50.80356445 289.38816406 50.97919922 288.08492188 51.16015625 286.7421875 C51.32136963 285.5857373 51.48258301 284.42928711 51.64868164 283.23779297 C51.98609587 280.12814219 52.06360937 277.12484713 52 274 C49.52662742 274 47.55428062 275.71408334 45.64794922 277.10449219 Z M47 336 C48 338 48 338 48 338 Z " fill="#FC6B63" transform="translate(744,4)"/>
<path d="M0 0 C1.20507776 3.61523328 0.63729468 4.84052046 -0.4375 8.4375 C-3.40976011 20.17231938 -2.3589749 27.75738092 3.15356445 38.41845703 C6.96361696 46.01820104 6.49482979 52.32205957 4.9375 60.5625 C3.05255901 72.43625234 6.2962544 79.24743599 13.15234375 89.08984375 C15.37928771 92.10859 17.66266739 95.06607549 20 98 C20.63421875 98.80179687 21.2684375 99.60359375 21.921875 100.4296875 C25.18950597 104.37687004 27.94054613 107.54054215 33 109 C40.10121415 109.04494439 47.09694841 107.5423304 54 106 C49.53214525 111.42525219 43.53261677 114.55342152 37 117 C33.62109375 117.16796875 33.62109375 117.16796875 31 117 C31 119.97 31 122.94 31 126 C34.3 126.99 37.6 127.98 41 129 C40.67 129.99 40.34 130.98 40 132 C32.92112286 134.35962571 26.74426719 132.90891708 19.87109375 130.4609375 C17.36637574 129.18642793 15.46263092 127.88877233 13.2578125 126.1796875 C8.9071521 122.82212936 4.3097178 120.2697104 -0.5625 117.75 C-1.37396484 117.316875 -2.18542969 116.88375 -3.02148438 116.4375 C-10.79232802 112.37332996 -17.22121195 109.97073241 -26 112 C-34.44072532 114.81822564 -39.955329 118.59738165 -44.125 126.5 C-50.67049424 140.48199816 -53.26590573 154.75194917 -53.34375 170.10546875 C-53.3583728 171.22778397 -53.37299561 172.35009918 -53.38806152 173.50642395 C-53.43407778 177.06674663 -53.46847203 180.62702157 -53.5 184.1875 C-53.74431564 211.24075883 -55.77091952 237.39934881 -60 264.125 C-60.53723063 267.57336121 -61.07187767 271.02211142 -61.60536194 274.47105408 C-61.94913733 276.68681292 -62.29580257 278.90212551 -62.64549255 281.11695862 C-63.66848588 287.62741336 -63.66848588 287.62741336 -64.46899414 294.16772461 C-65.68942719 305.62531686 -69.09037739 316.33120549 -72.4375 327.3125 C-77.55450465 344.10910628 -82.66312021 360.88088678 -82.375 378.625 C-82.36847412 379.57955078 -82.36194824 380.53410156 -82.35522461 381.51757812 C-82.10682051 396.01635748 -80.74060409 410.49399391 -79.55645752 424.94003296 C-78.93366552 432.62077265 -78.4477695 440.30717321 -78 448 C-82.24277742 446.19383093 -83.78381159 444.09362719 -85.88476562 440.06787109 C-88.35289022 433.27836724 -88.61670692 425.96178517 -89.25 418.8125 C-89.40964563 417.18927382 -89.57109254 415.56622375 -89.734375 413.94335938 C-90.19397056 409.29861643 -90.60778811 404.65087989 -91 400 C-91.10530029 398.7521875 -91.21060059 397.504375 -91.3190918 396.21875 C-93.48102343 368.42749905 -90.67044621 345.09410214 -83.02850342 318.55334473 C-76.00691161 294.10727144 -71.87978742 269.24106355 -69 244 C-68.89397461 243.14269287 -68.78794922 242.28538574 -68.67871094 241.40209961 C-67.73606732 232.83586741 -67.84919146 224.23616101 -67.86962891 215.62963867 C-67.87499524 212.93988426 -67.86965332 210.25029627 -67.86328125 207.56054688 C-67.8604171 199.30921139 -67.92533821 191.19642843 -69 183 C-69.55945313 183.44730469 -70.11890625 183.89460937 -70.6953125 184.35546875 C-81.85118329 192.76721055 -93.22378553 195.76969854 -107 196 C-105.87972826 192.63918477 -105.06597578 192.02570265 -102.375 189.875 C-84.54557673 174.55184797 -78.34049322 150.41497505 -74.0625 128.25 C-70.13035782 108.25301261 -61.78271766 95.46462133 -47.33129883 81.46191406 C-34.52110566 69.02421247 -27.24776372 57.02908274 -23.61376953 39.35668945 C-20.30850852 23.4197841 -13.36181937 9.93571184 0 0 Z " fill="#FC6B63" transform="translate(673,30)"/>
<path d="M0 0 C0.86325946 2.49386066 1.00015066 3.99913341 0.54296875 6.62890625 C-1.15629194 17.17899243 -1.6185276 29.35409057 4.6640625 38.39453125 C10.29656223 45.3397849 16.29947527 48.45166237 25 50 C40.07321744 51.13739411 54.33872202 49.38919119 69 46 C69 46.66 69 47.32 69 48 C53.8566066 62.08220863 36.07101914 66.44328631 16 66 C17.97257176 72.84813633 20.20332258 79.5877476 22.51586914 86.32788086 C40.08952516 137.65677702 40.08952516 137.65677702 31 158 C28.74271773 162.47831232 26.30285979 166.83530129 23.8125 171.1875 C23.14282731 172.37502232 22.47413899 173.56310025 21.80639648 174.75170898 C19.37350104 179.07647558 16.91987332 183.38934729 14.45898438 187.69824219 C-0.29614218 213.54580123 -9.26351211 235.5913542 -5.3125 265.78125 C-5.22385681 266.47374344 -5.13521362 267.16623688 -5.04388428 267.87971497 C-3.1714573 282.48188024 -0.84432836 296.99969751 1.65719223 311.50694275 C2.00725821 313.54219864 2.35423356 315.57796018 2.7003479 317.6138916 C6.81704857 341.81576311 11.26395198 365.95387471 15.89877605 390.06166458 C16.28203989 392.05679136 16.6635941 394.05223755 17.04463196 396.04779053 C17.50942338 398.47782038 17.97808586 400.90711429 18.45133972 403.33551025 C18.65648697 404.40911804 18.86163422 405.48272583 19.07299805 406.58886719 C19.2529985 407.51866394 19.43299896 408.44846069 19.61845398 409.40643311 C19.99686195 411.97866907 20.06956623 414.40430217 20 417 C17.66231706 413.49347559 16.53723491 409.92088898 15.26953125 405.9453125 C15.00235794 405.11734665 14.73518463 404.2893808 14.45991516 403.43632507 C13.5705192 400.66804292 12.69042662 397.89693985 11.8125 395.125 C11.50753601 394.16516205 11.20257202 393.2053241 10.8883667 392.21640015 C-20.34497512 293.64824929 -20.34497512 293.64824929 -25 247 C-25.45890625 247.90363281 -25.9178125 248.80726563 -26.390625 249.73828125 C-27.00991623 250.9299477 -27.62973585 252.12133966 -28.25 253.3125 C-28.85328125 254.48425781 -29.4565625 255.65601563 -30.078125 256.86328125 C-31.85984834 259.77125655 -33.13494346 261.24420208 -36 263 C-35.37917737 257.89550441 -34.29725353 253.08310366 -32.85546875 248.14453125 C-32.42105669 246.61788613 -31.98681797 245.09119167 -31.55273438 243.56445312 C-30.87779103 241.21050048 -30.20046885 238.85728209 -29.51928711 236.50512695 C-23.55445211 215.84712776 -20.30570138 195.67431829 -18.5 174.25 C-16.21866183 147.35630459 -11.71462134 121.71854703 -5.3125 95.5 C-4.41902905 91.82122944 -3.5280813 88.14189405 -2.64213562 84.46130371 C-2.09703473 82.1985305 -1.54751786 79.93681469 -0.99275208 77.6763916 C0.34836597 72.12785673 1.58774942 66.7018377 2 61 C0.80678771 58.91091477 0.80678771 58.91091477 -1.1875 57.5625 C-6.20940014 53.19214379 -8.77322633 47.51578848 -10 41 C-10.87299563 26.09192073 -8.45853109 14.15291861 -1 1 C-0.67 0.67 -0.34 0.34 0 0 Z M8 87 C2.17762391 107.53274097 2.17762391 107.53274097 -2.9375 128.25 C-3.13625732 129.10996582 -3.33501465 129.96993164 -3.53979492 130.85595703 C-5.69234368 140.53048378 -6.18344594 150.00549072 -6.4458313 159.90377808 C-6.53741871 163.34235663 -6.64114012 166.78055676 -6.74609375 170.21875 C-6.76655258 170.89179672 -6.78701141 171.56484344 -6.80809021 172.25828552 C-7.05676908 180.18110812 -7.49004264 188.09023577 -8 196 C-4.45760068 191.91250045 -2.04359778 187.61821468 0.40625 182.83984375 C0.81282837 182.05412491 1.21940674 181.26840607 1.63830566 180.45887756 C2.49499058 178.79869596 3.34873497 177.13699407 4.19970703 175.47387695 C5.48605229 172.96470668 6.78729352 170.46367856 8.08984375 167.96289062 C16.76110427 151.6400037 16.76110427 151.6400037 19.5625 133.625 C19.55371826 132.87951904 19.54493652 132.13403809 19.53588867 131.3659668 C19.00838032 116.2113831 14.1780894 101.14609956 9 87 C8.67 87 8.34 87 8 87 Z " fill="#FC6B63" transform="translate(650,199)"/>
<path d="M0 0 C15.18 0 30.36 0 46 0 C46 0.99 46 1.98 46 3 C45.18595703 3.25523437 45.18595703 3.25523437 44.35546875 3.515625 C43.64003906 3.75796875 42.92460938 4.0003125 42.1875 4.25 C41.47980469 4.48203125 40.77210937 4.7140625 40.04296875 4.953125 C37.35396881 6.33104466 36.50350128 7.34639344 35 10 C34.67487438 12.96449943 34.51144088 15.735704 34.48828125 18.703125 C34.47164429 19.4461084 34.45500732 20.1890918 34.43786621 20.95458984 C34.3802064 23.71944115 34.34784896 26.48477346 34.3125 29.25 C34.209375 35.4375 34.10625 41.625 34 48 C48.85 48 63.7 48 79 48 C78.896875 42.34875 78.79375 36.6975 78.6875 30.875 C78.66260498 29.10237793 78.63770996 27.32975586 78.61206055 25.50341797 C78.57974558 24.0829816 78.54636834 22.66256884 78.51171875 21.2421875 C78.50547485 20.51717041 78.49923096 19.79215332 78.49279785 19.04516602 C78.36006761 14.31996943 77.50409198 11.01514944 75 7 C72.12027681 4.85866737 69.5239931 3.65259131 66 3 C66 2.01 66 1.02 66 0 C81.18 0 96.36 0 112 0 C112 0.99 112 1.98 112 3 C111.37351562 3.14695312 110.74703125 3.29390625 110.1015625 3.4453125 C109.28429688 3.66960937 108.46703125 3.89390625 107.625 4.125 C106.81289062 4.33382813 106.00078125 4.54265625 105.1640625 4.7578125 C102.77691941 5.84690379 102.77691941 5.84690379 101.88092041 8.48449707 C100.77507 12.89763168 100.72027258 16.959503 100.74121094 21.49023438 C100.7377063 22.42756912 100.73420166 23.36490387 100.73059082 24.3306427 C100.72181312 27.41842123 100.72760872 30.50596927 100.734375 33.59375 C100.73302721 35.74556522 100.73108573 37.89738015 100.72857666 40.04919434 C100.72563076 44.55479843 100.72990592 49.06032312 100.73925781 53.56591797 C100.75065197 59.33614167 100.74408965 65.1061793 100.73211288 70.87639618 C100.72487991 75.31851601 100.72718884 79.76059185 100.73236847 84.20271301 C100.73370098 86.33014447 100.73207121 88.45757995 100.72740936 90.58500671 C100.72232058 93.56003371 100.73008757 96.53476091 100.74121094 99.50976562 C100.73716248 100.38578934 100.73311401 101.26181305 100.72894287 102.16438293 C100.7610242 106.80480379 101.05838094 110.68936213 103 115 C105.1285848 116.34944636 105.1285848 116.34944636 107.625 116.875 C108.44226562 117.09929687 109.25953125 117.32359375 110.1015625 117.5546875 C110.72804688 117.70164062 111.35453125 117.84859375 112 118 C112 118.99 112 119.98 112 121 C96.82 121 81.64 121 66 121 C66 120.01 66 119.02 66 118 C67.0725 117.773125 68.145 117.54625 69.25 117.3125 C73.41998137 115.85300652 74.67299718 114.66950445 77 111 C78.02406112 107.92781664 78.1546536 105.73987825 78.20532227 102.51879883 C78.22526749 101.39786331 78.24521271 100.2769278 78.26576233 99.12202454 C78.28247482 97.91257675 78.29918732 96.70312897 78.31640625 95.45703125 C78.3475779 93.59893074 78.3475779 93.59893074 78.37937927 91.70329285 C78.43371797 88.41374744 78.48395951 85.12417274 78.53222656 81.83453369 C78.58250646 78.47622196 78.63810675 75.11799862 78.69335938 71.75976562 C78.80133512 65.17324496 78.9004266 58.58667455 79 52 C64.15 52 49.3 52 34 52 C34.04664074 59.60010875 34.09699847 67.19854003 34.18379211 74.79802704 C34.22312717 78.33713231 34.25552768 81.8759863 34.27099609 85.4152832 C34.28907841 89.47908348 34.33903519 93.54195471 34.390625 97.60546875 C34.39185364 98.8702153 34.39308228 100.13496185 34.39434814 101.43803406 C34.41406677 102.61888077 34.4337854 103.79972748 34.45410156 105.01635742 C34.46298401 106.05338303 34.47186646 107.09040863 34.48101807 108.15885925 C35.13876732 111.75967478 36.43437833 113.42528632 39 116 C42.62473109 117.35835671 42.62473109 117.35835671 46 118 C46 118.99 46 119.98 46 121 C30.82 121 15.64 121 0 121 C0 120.01 0 119.02 0 118 C1.98567708 117.38151042 3.97135417 116.76302083 5.95703125 116.14453125 C8.86977566 114.51272606 9.59148063 113.04824221 11 110 C11.43217096 106.8424246 11.39968234 103.71438998 11.37231445 100.53149414 C11.37596512 99.58455185 11.37961578 98.63760956 11.38337708 97.66197205 C11.39147342 94.53618353 11.37787878 91.41091493 11.36328125 88.28515625 C11.36276249 86.10949199 11.3632808 83.93382725 11.36479187 81.75816345 C11.36470218 77.19946287 11.35428086 72.64093926 11.33618164 68.08227539 C11.31350828 62.24363041 11.31294841 56.4052443 11.31969929 50.56656742 C11.32304378 46.07382412 11.31639986 41.58113965 11.30657005 37.08840752 C11.30272506 34.93585963 11.30156693 32.7833052 11.3031559 30.63075447 C11.30352748 27.61967675 11.29087961 24.60892853 11.2746582 21.59790039 C11.27713562 20.7109549 11.27961304 19.8240094 11.28216553 18.91018677 C11.24215357 14.24750021 10.9538131 10.32979916 9 6 C6.8714152 4.65055364 6.8714152 4.65055364 4.375 4.125 C3.55773438 3.90070313 2.74046875 3.67640625 1.8984375 3.4453125 C1.27195312 3.29835938 0.64546875 3.15140625 0 3 C0 2.01 0 1.02 0 0 Z " fill="#FC6A62" transform="translate(1168,465)"/>
<path d="M0 0 C15.84 0 31.68 0 48 0 C48 0.99 48 1.98 48 3 C46.02 3.66 44.04 4.32 42 5 C41.59353901 10.17442941 42.77086414 13.15843111 45.24609375 17.67578125 C45.57666275 18.28640915 45.90723175 18.89703705 46.24781799 19.52616882 C47.29945175 21.46154379 48.3683005 23.38678474 49.4375 25.3125 C50.1528018 26.62504722 50.86700628 27.93819309 51.58007812 29.25195312 C54.32668615 34.97138426 54.32668615 34.97138426 58 40 C59.91782632 36.33393878 61.83404879 32.66704149 63.75 29 C64.28882813 27.97003906 64.82765625 26.94007813 65.3828125 25.87890625 C66.43983353 23.8550977 67.49266031 21.82909228 68.54101562 19.80078125 C69.44823371 18.059214 70.37126358 16.32567534 71.31835938 14.60546875 C73.41672836 10.94388372 73.41672836 10.94388372 73.78808594 6.859375 C73.09648628 4.61960724 73.09648628 4.61960724 69.9375 3.75 C68.968125 3.5025 67.99875 3.255 67 3 C67 2.01 67 1.02 67 0 C76.9 0 86.8 0 97 0 C97 0.99 97 1.98 97 3 C96.02160156 3.25523437 96.02160156 3.25523437 95.0234375 3.515625 C94.14945312 3.75796875 93.27546875 4.0003125 92.375 4.25 C91.51648438 4.48203125 90.65796875 4.7140625 89.7734375 4.953125 C83.42001046 7.35132 80.20017852 10.59212778 77.01953125 16.5234375 C76.67999924 17.14723297 76.34046722 17.77102844 75.99064636 18.41372681 C74.91729349 20.39365249 73.86483875 22.38384079 72.8125 24.375 C72.09573404 25.70384487 71.37764602 27.03197753 70.65820312 28.359375 C68.74922824 31.89441969 66.86090588 35.43933777 65 39 C64.41049561 40.02689941 63.82099121 41.05379883 63.21362305 42.11181641 C61.80788707 45.4571909 61.81553514 46.61898764 63 50 C63.92189608 51.97761858 64.91569948 53.9224247 65.95703125 55.83984375 C66.5694165 56.97502441 67.18180176 58.11020508 67.81274414 59.27978516 C68.47912829 60.49913338 69.14571808 61.71836924 69.8125 62.9375 C70.4932857 64.19291014 71.17353773 65.44860982 71.85327148 66.70458984 C73.23235829 69.24997503 74.61539602 71.79314929 76.00195312 74.33447266 C77.82745454 77.68067764 79.64163105 81.03290653 81.453125 84.38671875 C82.48914188 86.29971831 83.52557433 88.21249289 84.5625 90.125 C85.02567627 90.98085693 85.48885254 91.83671387 85.96606445 92.71850586 C92.77041267 106.97464157 92.77041267 106.97464157 104.82421875 115.9609375 C107.53800676 116.71843531 110.24803785 117.39770223 113 118 C113 118.99 113 119.98 113 121 C97.16 121 81.32 121 65 121 C65 120.01 65 119.02 65 118 C66.98 117.34 68.96 116.68 71 116 C71.30334763 111.26008395 70.58232946 108.49644272 68.2890625 104.359375 C67.70785645 103.29638184 67.12665039 102.23338867 66.52783203 101.13818359 C65.89989746 100.02008301 65.27196289 98.90198242 64.625 97.75 C63.67729736 96.02837646 63.67729736 96.02837646 62.71044922 94.27197266 C60.81868727 90.84132868 58.91054986 87.4202074 57 84 C55.9468473 82.09694556 54.8946721 80.19334965 53.84375 78.2890625 C51.57580709 74.18516581 49.29325002 70.08980534 47 66 C46.34 66 45.68 66 45 66 C44.69932617 66.58152832 44.39865234 67.16305664 44.08886719 67.76220703 C42.64504359 70.55108928 41.19774751 73.33815269 39.75 76.125 C38.95094238 77.66692017 38.95094238 77.66692017 38.13574219 79.23999023 C35.34049961 84.60818237 32.49822717 89.9393767 29.53125 95.21484375 C28.98114258 96.19759277 28.43103516 97.1803418 27.86425781 98.19287109 C26.80663846 100.07297665 25.73862535 101.94728173 24.65917969 103.81494141 C21.18576199 109.98866338 21.18576199 109.98866338 21 117 C22.98 117.33 24.96 117.66 27 118 C27 118.99 27 119.98 27 121 C17.1 121 7.2 121 -3 121 C-3 120.01 -3 119.02 -3 118 C-2.41992188 117.90203125 -1.83984375 117.8040625 -1.2421875 117.703125 C6.79386114 116.16487146 11.44279518 113.16673408 16.27172852 106.60888672 C19.90801332 101.11978664 22.84086172 95.21077001 25.875 89.375 C26.88702153 87.44003819 27.90113303 85.5062084 28.9175415 83.57354736 C29.59021521 82.29411654 30.26060122 81.01348024 30.9286499 79.73162842 C32.64420686 76.46394557 34.420215 73.2562212 36.32519531 70.09472656 C36.70104767 69.46547272 37.07690002 68.83621887 37.46414185 68.18789673 C38.50826373 66.45456856 39.57024145 64.73203261 40.63330078 63.01025391 C42.1957377 59.56887356 42.27608655 58.49565165 41 55 C40.04301101 52.95200888 39.0139308 50.93702968 37.9375 48.94921875 C37.47644363 48.09158684 37.47644363 48.09158684 37.006073 47.21662903 C36.01082789 45.36982418 35.00601223 43.52845874 34 41.6875 C33.31236736 40.42073322 32.62503107 39.15380553 31.93798828 37.88671875 C30.58306494 35.39135243 29.22352348 32.89858393 27.86035156 30.40771484 C26.28653919 27.5248706 24.728949 24.6343505 23.1796875 21.73828125 C22.41243987 20.32498753 21.64431098 18.91217161 20.875 17.5 C20.54628906 16.87955811 20.21757812 16.25911621 19.87890625 15.61987305 C16.3438241 9.23799505 11.70680395 6.51505148 5 4 C2.22111387 3.30859478 2.22111387 3.30859478 0 3 C0 2.01 0 1.02 0 0 Z " fill="#FC6B63" transform="translate(304,465)"/>
<path d="M0 0 C15.84 0 31.68 0 48 0 C48 0.99 48 1.98 48 3 C46.02 3.66 44.04 4.32 42 5 C41.59905816 10.16005319 42.76164807 13.15956333 45.2109375 17.67578125 C45.53913483 18.28640915 45.86733215 18.89703705 46.20547485 19.52616882 C46.89736355 20.8075122 47.59526315 22.08562623 48.29882812 23.3605957 C49.37748562 25.31700829 50.43613883 27.28326073 51.4921875 29.25195312 C54.30678768 35.53004961 54.30678768 35.53004961 59 40 C59.39989136 38.69011108 59.39989136 38.69011108 59.80786133 37.35375977 C60.9666821 34.09373091 62.35537609 31.33609728 64.07421875 28.33984375 C64.65880859 27.29892578 65.24339844 26.25800781 65.84570312 25.18554688 C67.07810182 23.01218629 68.31775133 20.84292199 69.56445312 18.67773438 C70.43553711 17.11829102 70.43553711 17.11829102 71.32421875 15.52734375 C71.86135498 14.58624756 72.39849121 13.64515137 72.9519043 12.67553711 C74.16671626 9.57441334 74.14825991 8.10392713 73 5 C70.52363988 3.62533375 70.52363988 3.62533375 68 3 C68 2.01 68 1.02 68 0 C77.57 0 87.14 0 97 0 C97 0.99 97 1.98 97 3 C96.32453125 3.18175781 95.6490625 3.36351562 94.953125 3.55078125 C93.61507812 3.92783203 93.61507812 3.92783203 92.25 4.3125 C91.36828125 4.55613281 90.4865625 4.79976563 89.578125 5.05078125 C86.93799305 6.02282983 85.20523478 7.28854605 83 9 C82.34 9 81.68 9 81 9 C80.72454346 9.55469971 80.44908691 10.10939941 80.1652832 10.6809082 C77.89000045 15.20906888 75.5293544 19.69351821 73.1875 24.1875 C72.66607422 25.19103516 72.14464844 26.19457031 71.60742188 27.22851562 C71.09115234 28.21916016 70.57488281 29.20980469 70.04296875 30.23046875 C69.53685059 31.2054834 69.03073242 32.18049805 68.50927734 33.18505859 C66.72158603 36.51926772 64.78567947 39.75172105 62.77856445 42.95825195 C61.72229001 45.72828117 62.12870189 47.18438181 63 50 C63.84941878 51.83151097 64.76941667 53.63111646 65.73828125 55.40234375 C66.58894165 56.96927979 66.58894165 56.96927979 67.45678711 58.56787109 C68.06917236 59.67984863 68.68155762 60.79182617 69.3125 61.9375 C70.26748438 63.68947006 71.2224675 65.44144081 72.17732239 67.19348145 C73.15069925 68.97679998 74.1271881 70.75838187 75.10449219 72.53955078 C76.86270394 75.74935159 78.60976099 78.96486576 80.3515625 82.18359375 C82.79773796 86.70098624 85.25944336 91.20943193 87.73828125 95.70898438 C88.53270042 97.15148234 89.32471455 98.59531 90.11328125 100.04101562 C91.04359087 101.74179403 91.98980189 103.43384907 92.9375 105.125 C93.42089844 105.99382812 93.90429688 106.86265625 94.40234375 107.7578125 C98.42925778 113.4092762 104.30266939 116.1346673 110.9375 117.6875 C111.618125 117.790625 112.29875 117.89375 113 118 C113 118.99 113 119.98 113 121 C97.16 121 81.32 121 65 121 C65 120.01 65 119.02 65 118 C66.98 117.34 68.96 116.68 71 116 C71.35117621 111.04281695 70.41407765 108.18254847 68.03515625 103.8515625 C67.72618912 103.28108688 67.41722198 102.71061127 67.09889221 102.12284851 C66.09872128 100.28339536 65.08111676 98.45429211 64.0625 96.625 C63.37254018 95.36537196 62.68357813 94.10519689 61.99560547 92.84448242 C60.01307636 89.22065473 58.00805847 85.60974264 56 82 C55.47937988 81.05817871 54.95875977 80.11635742 54.42236328 79.14599609 C50.78959573 71.64824032 50.78959573 71.64824032 46 65 C45.5035498 65.91773193 45.5035498 65.91773193 44.99707031 66.85400391 C43.99336392 68.70909924 42.98925542 70.56397703 41.98486328 72.41870117 C40.82000074 74.57154943 39.65693913 76.72537303 38.49560547 78.88012695 C35.52227309 84.38768688 32.52006463 89.87353737 29.4296875 95.31640625 C28.8737793 96.30495605 28.31787109 97.29350586 27.74511719 98.31201172 C26.68186571 100.19913889 25.60732621 102.07995952 24.52050781 103.95361328 C24.04194336 104.80810059 23.56337891 105.66258789 23.0703125 106.54296875 C22.64508301 107.28571045 22.21985352 108.02845215 21.78173828 108.79370117 C20.78548877 111.60541474 21.04015605 113.19971315 22 116 C24.47636012 117.37466625 24.47636012 117.37466625 27 118 C27 118.99 27 119.98 27 121 C17.1 121 7.2 121 -3 121 C-3 120.01 -3 119.02 -3 118 C-2.41992188 117.90203125 -1.83984375 117.8040625 -1.2421875 117.703125 C4.1389383 116.67307452 7.59631192 115.22221079 12 112 C12.66 112 13.32 112 14 112 C14.25579834 111.48083008 14.51159668 110.96166016 14.77514648 110.42675781 C16.34289233 107.32063987 17.96890884 104.24626902 19.59765625 101.171875 C19.94836685 100.50978531 20.29907745 99.84769562 20.66041565 99.1655426 C21.40825642 97.75453921 22.15640852 96.34370079 22.90484619 94.93301392 C23.67807207 93.47492442 24.45048952 92.01640593 25.22210693 90.5574646 C34.77499811 72.49722858 34.77499811 72.49722858 39.75024414 64.50488281 C41.15905331 62.13608241 42.04913381 60.55165776 41.80053711 57.76049805 C40.78311981 54.25213044 39.19007843 51.16760197 37.46484375 47.96875 C37.10789932 47.29638306 36.7509549 46.62401611 36.38319397 45.93127441 C35.62550192 44.50754403 34.86463985 43.08549676 34.10083008 41.66503906 C32.9582817 39.53867621 31.82697415 37.40664395 30.69726562 35.2734375 C21.81241066 16.11004555 21.81241066 16.11004555 5.71875 4.2734375 C3.83054352 3.77479142 1.91631931 3.37641987 0 3 C0 2.01 0 1.02 0 0 Z " fill="#FC6B63" transform="translate(480,465)"/>
<path d="M0 0 C0.99064453 -0.020625 1.98128906 -0.04125 3.00195312 -0.0625 C13.56696906 -0.11792303 22.70741099 2.22984416 30.8125 9.25 C34.72617289 13.41970756 36.1189339 17.16867123 36.3125 22.875 C36.04315357 28.27689223 34.84193572 31.98639862 31.1875 36.0625 C27.50278698 37.90485651 23.91517993 38.36416153 19.8125 38.25 C14.43964133 36.42525555 11.33848965 33.30197929 8.8125 28.25 C8.20852724 21.07255631 9.32159193 14.25194325 10.8125 7.25 C5.40640522 3.64593681 -1.70603265 4.66401045 -7.94921875 5.71484375 C-17.09086618 8.14017878 -24.0378799 12.76298659 -28.97265625 20.8828125 C-38.03246252 38.53632567 -35.60483178 62.0570631 -29.93359375 80.47265625 C-25.51294124 93.76407444 -18.3928658 104.94194596 -5.6640625 111.5625 C3.19545064 115.30376068 13.0863176 115.952314 22.1875 112.625 C29.91054431 109.01669241 35.59895283 103.92492024 40.8125 97.25 C42.4625 98.24 44.1125 99.23 45.8125 100.25 C39.02655358 112.2796323 27.82128348 117.81028267 15.375 122.5625 C-0.62455037 125.65013253 -17.70856417 124.57066075 -31.75390625 115.61328125 C-34.00460103 113.91859567 -36.10173997 112.14278617 -38.1875 110.25 C-38.80109375 109.72792969 -39.4146875 109.20585938 -40.046875 108.66796875 C-50.33075884 99.31691508 -56.51108119 84.65752143 -57.328125 70.87841797 C-58.0496519 51.05446634 -56.33520379 33.61758837 -42.875 18 C-30.64627036 5.16085124 -17.57194469 0.08970999 0 0 Z " fill="#FC6B63" transform="translate(1058.1875,463.75)"/>
<path d="M0 0 C26.4 0 52.8 0 80 0 C83.48214286 18.57142857 83.48214286 18.57142857 84 26 C82.68 26.33 81.36 26.66 80 27 C79.79246094 26.29875 79.58492188 25.5975 79.37109375 24.875 C77.17479999 18.11151797 74.56052677 12.61257834 69 8 C64.93453354 5.998729 61.45327055 5.70093457 56.94921875 5.5859375 C55.14070435 5.53252197 55.14070435 5.53252197 53.2956543 5.47802734 C51.77496338 5.44402832 50.25427246 5.4100293 48.6875 5.375 C43.840625 5.25125 38.99375 5.1275 34 5 C34 19.19 34 33.38 34 48 C50.39388345 48.49196019 50.39388345 48.49196019 57 44 C60.03280065 39.81651911 61.48817446 35.11825536 62 30 C62.99 30 63.98 30 65 30 C65 43.53 65 57.06 65 71 C64.01 71 63.02 71 62 71 C61.85304688 70.12988281 61.85304688 70.12988281 61.703125 69.2421875 C60.70727333 64.03972102 59.58832302 60.07323154 56 56 C49.00418572 51.49158635 42.87236718 52.59149115 34 52 C34 73.12 34 94.24 34 116 C39.135625 115.9175 44.27125 115.835 49.5625 115.75 C51.97284546 115.72631348 51.97284546 115.72631348 54.43188477 115.70214844 C55.71377686 115.6715332 56.99566895 115.64091797 58.31640625 115.609375 C60.27235718 115.5779541 60.27235718 115.5779541 62.26782227 115.54589844 C67.42324882 114.79182414 71.09565981 112.83745221 74.890625 109.17578125 C78.3976901 104.36868339 80.48161304 99.75388741 82 94 C83.98 94.495 83.98 94.495 86 95 C84.68 103.58 83.36 112.16 82 121 C54.94 121 27.88 121 0 121 C0 120.01 0 119.02 0 118 C0.54269531 117.82984375 1.08539063 117.6596875 1.64453125 117.484375 C7.3542858 115.60262557 7.3542858 115.60262557 11 111 C12.26200644 106.74270852 12.15530039 102.52469477 12.16113281 98.11987305 C12.16609772 97.22345093 12.17106262 96.32702881 12.17617798 95.40344238 C12.19077613 92.43952668 12.19759769 89.47566449 12.203125 86.51171875 C12.20887836 84.4491221 12.21463607 82.38652546 12.22039795 80.32392883 C12.23090124 75.99890901 12.23674832 71.67390774 12.24023438 67.34887695 C12.24571781 61.81406147 12.26974557 56.27949215 12.29820633 50.74475384 C12.31685394 46.48359974 12.32203944 42.2225047 12.32357025 37.96131325 C12.32659248 35.92121853 12.33460646 33.88112475 12.34775543 31.84107018 C12.36486023 28.98329447 12.3629248 26.12611704 12.35644531 23.26831055 C12.3656601 22.43014297 12.37487488 21.5919754 12.3843689 20.72840881 C12.34674354 15.41574913 11.52458392 11.70501167 9 7 C6.14106555 4.80081965 3.53728413 3.65505262 0 3 C0 2.01 0 1.02 0 0 Z " fill="#FC6B63" transform="translate(150,465)"/>
<path d="M0 0 C15.18 0 30.36 0 46 0 C46 0.99 46 1.98 46 3 C45.18595703 3.25523437 45.18595703 3.25523437 44.35546875 3.515625 C38.66557093 5.4086373 38.66557093 5.4086373 35 10 C34.08113709 12.75658872 33.86603376 14.42661181 33.84178162 17.27104187 C33.82709839 18.57721466 33.82709839 18.57721466 33.81211853 19.90977478 C33.80636307 20.86211502 33.8006076 21.81445526 33.79467773 22.7956543 C33.78477814 23.80071014 33.77487854 24.80576599 33.76467896 25.84127808 C33.73304922 29.16890087 33.70830061 32.49653794 33.68359375 35.82421875 C33.6630255 38.12922032 33.64202907 40.43421811 33.62062073 42.73921204 C33.56538674 48.81040384 33.51598327 54.88162976 33.46777344 60.95288086 C33.41756814 67.14635255 33.361877 73.33977462 33.30664062 79.53320312 C33.1990428 91.6887597 33.09760139 103.84435934 33 116 C37.59053954 115.95569125 42.17972389 115.88569892 46.76953125 115.79248047 C48.3289915 115.76435587 49.88859204 115.74309911 51.44824219 115.72900391 C53.69799173 115.70745458 55.94606974 115.66074943 58.1953125 115.609375 C59.23161301 115.60753204 59.23161301 115.60753204 60.28884888 115.60565186 C66.67280306 115.41498723 70.18099418 112.77569616 74.625 108.4375 C77.97437762 104.24264842 79.39168607 99.04956663 81 94 C82.98 94.495 82.98 94.495 85 95 C84.52572253 98.77146518 84.04474135 102.54204552 83.5625 106.3125 C83.36043945 107.9202832 83.36043945 107.9202832 83.15429688 109.56054688 C82.95610352 111.10258789 82.95610352 111.10258789 82.75390625 112.67578125 C82.63345947 113.62364502 82.5130127 114.57150879 82.38891602 115.5480957 C82 118 82 118 81 121 C54.27 121 27.54 121 0 121 C0 120.01 0 119.02 0 118 C0.62648437 117.85304688 1.25296875 117.70609375 1.8984375 117.5546875 C2.71570313 117.33039063 3.53296875 117.10609375 4.375 116.875 C5.59316406 116.56175781 5.59316406 116.56175781 6.8359375 116.2421875 C9.2229602 115.15323619 9.2229602 115.15323619 10.11808777 112.51649475 C11.22568915 108.10009786 11.28745926 104.02851599 11.2746582 99.49389648 C11.27976913 98.55495544 11.28488007 97.6160144 11.29014587 96.64862061 C11.30400578 93.55604619 11.30308821 90.46369546 11.30078125 87.37109375 C11.30466933 85.2168825 11.30900423 83.06267202 11.31376648 80.90846252 C11.32122033 76.3986665 11.32094283 71.88894878 11.31567383 67.37915039 C11.30987147 61.59980022 11.32683289 55.82076973 11.3500185 50.04147243 C11.36474585 45.59509914 11.36562905 41.1488031 11.36250877 36.70240974 C11.36302219 34.57135445 11.36826383 32.44029486 11.37832069 30.30926323 C11.39065218 27.33153302 11.38391367 24.35442911 11.37231445 21.37670898 C11.37995819 20.49709 11.38760193 19.61747101 11.39547729 18.7111969 C11.35478187 13.9863789 11.0872224 10.82519718 8 7 C5.33314934 5.13320454 3.09010837 4.03003612 0 3 C0 2.01 0 1.02 0 0 Z " fill="#FC6B63" transform="translate(0,465)"/>
<path d="M0 0 C-0.72703125 0.95777344 -1.4540625 1.91554688 -2.203125 2.90234375 C-23.23240167 30.70717145 -39.07005642 54.37758365 -43.25 89.8125 C-43.35027496 90.64275696 -43.45054993 91.47301392 -43.55386353 92.32843018 C-45.27668934 106.73531395 -46.5746269 121.17369014 -47.80859375 135.62890625 C-47.88622326 136.53692553 -47.96385277 137.4449448 -48.04383469 138.38047981 C-48.83617163 147.6657092 -49.61533859 156.95189201 -50.36693478 166.24051189 C-50.65420602 169.77607525 -50.94758843 173.31111699 -51.24193001 176.84609795 C-51.37919875 178.51558949 -51.51339041 180.18533713 -51.64437675 181.85533333 C-51.8254443 184.1631794 -52.01648847 186.47000054 -52.2097168 188.77685547 C-52.3669648 190.73194534 -52.3669648 190.73194534 -52.52738953 192.72653198 C-52.94943451 195.64976548 -53.47211648 197.51105496 -55 200 C-55.72924765 181.53304813 -56.08098278 163.09710963 -55.91396713 144.61545944 C-55.88660271 141.57695884 -55.86343033 138.53845164 -55.84133911 135.49990845 C-55.71677358 118.86974274 -55.71677358 118.86974274 -55.60229492 110.56567383 C-55.5318844 105.39004485 -55.49108321 100.21490487 -55.46967506 95.03885078 C-55.4561984 93.09603857 -55.43196678 91.15326666 -55.39618492 89.21073723 C-55.0518422 74.57204382 -55.0518422 74.57204382 -62 62 C-63.10566301 60.50110263 -64.20999059 59.00121851 -65.3125 57.5 C-72.33428115 48.76484306 -79.98346953 40.97827141 -88.27734375 33.46875 C-89.88286232 32.01295698 -91.46751457 30.53248543 -93 29 C-79.10670715 27.72408535 -68.17228232 33.32209709 -57.05859375 40.9140625 C-54.42026407 42.71338313 -51.75566468 44.38868024 -49 46 C-48.9175 45.31292969 -48.835 44.62585938 -48.75 43.91796875 C-47.81115472 40.26527382 -46.04979605 37.42653101 -44 34.3125 C-43.39551025 33.38884644 -43.39551025 33.38884644 -42.77880859 32.4465332 C-36.86528922 23.60845533 -12.28237374 -6.14118687 0 0 Z " fill="#FC6B63" transform="translate(778,434)"/>
<path d="M0 0 C2.97 0 5.94 0 9 0 C17.44646925 16.70842825 17.44646925 16.70842825 21 25 C21.67095703 23.54980469 21.67095703 23.54980469 22.35546875 22.0703125 C25.79489412 14.65652479 29.28291103 7.28001296 33 0 C35.97 0 38.94 0 42 0 C42 14.52 42 29.04 42 44 C39.36 44 36.72 44 34 44 C33.67 36.74 33.34 29.48 33 22 C29.7 29.26 26.4 36.52 23 44 C21.68 44 20.36 44 19 44 C15.7 36.74 12.4 29.48 9 22 C8.67 29.26 8.34 36.52 8 44 C5.36 44 2.72 44 0 44 C0 29.48 0 14.96 0 0 Z " fill="#FC6B63" transform="translate(346,711)"/>
<path d="M0 0 C2 1 2 1 2.9296875 3.328125 C3.24164062 4.29234375 3.55359375 5.2565625 3.875 6.25 C5.35833458 10.54943971 6.92138852 13.59153729 10 17 C10 17.66 10 18.32 10 19 C10.58265625 19.27972656 11.1653125 19.55945313 11.765625 19.84765625 C13.86767822 20.93175713 15.78074984 22.13144772 17.75 23.4375 C21.68772205 25.93928581 25.58872595 27.50331773 30 29 C30 29.33 30 29.66 30 30 C29.3709375 30.14695312 28.741875 30.29390625 28.09375 30.4453125 C18.8030086 32.87993449 11.27960088 37.83520878 6 46 C4.13147208 49.92933179 2.5133859 53.92189374 1 58 C-0.14087 55.76624052 -1.21051098 53.52467426 -2.2265625 51.23046875 C-6.74963027 41.38837435 -11.89477492 35.87446361 -21.921875 31.7265625 C-23.93149254 31.02395186 -25.92613832 30.47642768 -28 30 C-28 29.34 -28 28.68 -28 28 C-27.29875 27.78085937 -26.5975 27.56171875 -25.875 27.3359375 C-15.2593026 23.78775603 -8.27806378 19.06285057 -3 9 C-1.81234961 6.04207827 -0.82920416 3.07678385 0 0 Z " fill="#FC6B63" transform="translate(520,280)"/>
<path d="M0 0 C1.64908544 2.47362816 2.65514453 4.47437131 3.75 7.1875 C7.81049619 16.31620677 12.93252115 21.65903375 22 26 C24.34856915 26.86767741 26.54694596 27.46672738 29 28 C29 28.66 29 29.32 29 30 C28.31035156 30.20753906 27.62070312 30.41507812 26.91015625 30.62890625 C17.52778997 33.70488093 9.970403 38.08899471 4.99609375 46.8671875 C3.31390341 50.46905387 2.0873631 54.18096863 1 58 C-1.22013951 55.77986049 -1.71598135 54.3047195 -2.75 51.375 C-6.49929675 41.87860605 -11.69118394 36.34030687 -21 32 C-23.68690295 31.0985874 -26.20403804 30.51777073 -29 30 C-28 28 -28 28 -25.77734375 27.140625 C-24.84019531 26.84671875 -23.90304687 26.5528125 -22.9375 26.25 C-14.70372808 23.35589859 -8.1406965 18.83932576 -4 11 C-2.50838968 7.38101104 -1.2052334 3.72343056 0 0 Z " fill="#FC6B63" transform="translate(880,280)"/>
<path d="M0 0 C2.64 0 5.28 0 8 0 C8 5.94 8 11.88 8 18 C13.94 18 19.88 18 26 18 C26 12.06 26 6.12 26 0 C28.64 0 31.28 0 34 0 C34 14.52 34 29.04 34 44 C31.36 44 28.72 44 26 44 C26 38.06 26 32.12 26 26 C20.06 26 14.12 26 8 26 C8 31.94 8 37.88 8 44 C5.36 44 2.72 44 0 44 C0 29.48 0 14.96 0 0 Z " fill="#FC6B64" transform="translate(807,711)"/>
<path d="M0 0 C8.91 0 17.82 0 27 0 C27 2.64 27 5.28 27 8 C21.06 8 15.12 8 9 8 C9 11.3 9 14.6 9 18 C13.95 18 18.9 18 24 18 C24 20.64 24 23.28 24 26 C19.05 26 14.1 26 9 26 C9 29.3 9 32.6 9 36 C14.94 36 20.88 36 27 36 C27 38.64 27 41.28 27 44 C18.09 44 9.18 44 0 44 C0 29.48 0 14.96 0 0 Z " fill="#FC665E" transform="translate(518,711)"/>
<path d="M0 0 C8.91 0 17.82 0 27 0 C27 2.64 27 5.28 27 8 C20.73 8 14.46 8 8 8 C8 11.3 8 14.6 8 18 C12.95 18 17.9 18 23 18 C23 20.64 23 23.28 23 26 C18.05 26 13.1 26 8 26 C8 29.3 8 32.6 8 36 C14.27 36 20.54 36 27 36 C27 38.64 27 41.28 27 44 C18.09 44 9.18 44 0 44 C0 29.48 0 14.96 0 0 Z " fill="#FC6B64" transform="translate(893,711)"/>
<path d="M0 0 C8.91 0 17.82 0 27 0 C27 2.64 27 5.28 27 8 C20.73 8 14.46 8 8 8 C8 11.3 8 14.6 8 18 C12.95 18 17.9 18 23 18 C23 20.64 23 23.28 23 26 C18.05 26 13.1 26 8 26 C8 29.3 8 32.6 8 36 C14.27 36 20.54 36 27 36 C27 38.64 27 41.28 27 44 C18.09 44 9.18 44 0 44 C0 29.48 0 14.96 0 0 Z " fill="#FC6B63" transform="translate(441,711)"/>
<path d="M0 0 C3.3 0 6.6 0 10 0 C12.64 4.95 15.28 9.9 18 15 C21.02154733 11.97845267 22.25243526 9.59833741 24.125 5.8125 C27.25827028 0.23702333 27.25827028 0.23702333 30.45703125 -0.78515625 C32.7484465 -0.7526795 34.77696676 -0.5444163 37 0 C35.8964508 3.32386377 34.36838874 6.05250313 32.43359375 8.94140625 C24.67857343 20.7521465 22.36202464 29.92003219 23 44 C20.03 44 17.06 44 14 44 C14.06703125 42.79988281 14.1340625 41.59976563 14.203125 40.36328125 C14.50441625 26.06208625 10.0492251 16.727225 2.19921875 4.95092773 C1 3 1 3 0 0 Z " fill="#FC6B63" transform="translate(1024,711)"/>
<path d="M0 0 C10.89 0 21.78 0 33 0 C33 2.64 33 5.28 33 8 C29.04 8 25.08 8 21 8 C21 19.88 21 31.76 21 44 C18.03 44 15.06 44 12 44 C12 32.12 12 20.24 12 8 C8.04 8 4.08 8 0 8 C0 5.36 0 2.72 0 0 Z " fill="#FC6C63" transform="translate(726,711)"/>
<path d="M0 0 C11.22 0 22.44 0 34 0 C34 2.64 34 5.28 34 8 C29.71 8 25.42 8 21 8 C21 19.88 21 31.76 21 44 C18.36 44 15.72 44 13 44 C13 32.12 13 20.24 13 8 C8.71 8 4.42 8 0 8 C0 5.36 0 2.72 0 0 Z " fill="#FC6C64" transform="translate(592,711)"/>
<path d="M0 0 C3.61706278 1.90295271 5.68681024 4.06043071 7 8 C7.65250092 12.89375689 7.51962483 16.10689483 5 20.4375 C1.41624304 23.49862574 -1.27354797 24.8870517 -6 25 C-9.90118244 24.2545955 -12.94104836 22.92231272 -15.9375 20.3125 C-18.13473402 15.53028478 -18.56765819 11.63990143 -16.875 6.75 C-12.38091879 0.1586809 -7.78383103 -1.46723971 0 0 Z " fill="#FC6B63" transform="translate(920,563)"/>
<path d="M0 0 C13.74224731 1.32288875 29.30843973 3.45582669 40 13 C42 16 42 16 41.625 18.6875 C41.41875 19.450625 41.2125 20.21375 41 21 C38 22 38 22 34.5625 20.375 C32.10932909 18.89393623 30.93465248 17.91211885 29.1875 15.5625 C23.58848182 9.00365013 14.32367723 6.97188089 6.27050781 4.78710938 C4.48628188 4.27929785 2.73808364 3.64838259 1 3 C0.67 2.01 0.34 1.02 0 0 Z " fill="#FC6A62" transform="translate(684,170)"/>
<path d="M0 0 C2.78985334 2.78985334 2.9583811 5.87696925 3.625 9.625 C3.7590625 10.31207031 3.893125 10.99914062 4.03125 11.70703125 C6.44465763 24.83301356 6.44465763 24.83301356 3 30 C1.35 30 -0.3 30 -2 30 C-5.5676553 24.64851705 -4.12069619 17.68437321 -2.98242188 11.70703125 C-2.84384766 11.01996094 -2.70527344 10.33289063 -2.5625 9.625 C-2.42779297 8.91472656 -2.29308594 8.20445312 -2.15429688 7.47265625 C-1.14710307 2.29420613 -1.14710307 2.29420613 0 0 Z " fill="#FC6A63" transform="translate(728,342)"/>
<path d="M0 0 C0.79462646 0.0098291 1.58925293 0.0196582 2.40795898 0.02978516 C9.14762271 0.17481161 16.03546232 0.52336277 22.5625 2.3125 C23.0575 3.3025 23.0575 3.3025 23.5625 4.3125 C22.37914062 4.36148438 21.19578125 4.41046875 19.9765625 4.4609375 C6.42506029 4.05213734 6.42506029 4.05213734 -5.4375 8.3125 C-7.43708364 8.35330783 -9.43795254 8.35504356 -11.4375 8.3125 C-11.7675 6.6625 -12.0975 5.0125 -12.4375 3.3125 C-8.76872708 -0.37573591 -4.89323251 -0.11112873 0 0 Z " fill="#FC6B63" transform="translate(744.4375,185.6875)"/>
</svg>
